<svg xmlns="http://www.w3.org/2000/svg" viewBox="0 0 72 48" role="img" aria-label="Santa hat">
  <path d="M15 32c3-12 12-23 25-26 9-2 17 3 19 12-12-4-22 1-30 14H15Z" fill="#a51f2d"/>
  <path d="M17 31h31c4 0 7 3 7 7s-3 7-7 7H17c-4 0-7-3-7-7s3-7 7-7Z" fill="#fff8ed"/>
  <path d="M16 34h32c2 0 4 2 4 4s-2 4-4 4H16c-2 0-4-2-4-4s2-4 4-4Z" fill="#f2e4cf"/>
  <circle cx="59" cy="18" r="8" fill="#fff8ed"/>
  <circle cx="59" cy="18" r="5" fill="#f2e4cf"/>
  <path d="M40 6c-6 2-12 6-16 12 8-6 17-8 29-3-3-7-8-10-13-9Z" fill="#c43a46" opacity=".75"/>
</svg>
